Coordinates
version=1
nRows=26
nColumns=24
inDegrees=yes

Units are S.I. units (second, meters, Newtons, ...)
Angles are in degrees.

endheader
time	pelvis_tilt	pelvis_list	pelvis_rotation	pelvis_tx	pelvis_ty	pelvis_tz	hip_flexion_r	hip_adduction_r	hip_rotation_r	knee_angle_r	ankle_angle_r	subtalar_angle_r	mtp_angle_r	hip_flexion_l	hip_adduction_l	hip_rotation_l	knee_angle_l	ankle_angle_l	subtalar_angle_l	mtp_angle_l	lumbar_extension	lumbar_bending	lumbar_rotation
      1.78000000	      5.74967404	     -8.00945925	      6.70555970	      0.47048434	      0.91907629	      0.07989444	     -1.43001117	     11.78059705	     -7.25433110	    -13.02054292	     18.61262153	     -4.34260231	     24.83447237	     18.05817128	     -6.53894861	      4.33443108	    -66.52848401	     14.82411887	      0.50320107	     28.67857391	    -13.06711945	      9.44552104	     -4.74794057
      1.78500000	      5.95576105	     -7.79132079	      6.66633215	      0.47770006	      0.92002359	      0.08000264	     -2.61192479	     11.70128259	     -6.85654921	    -12.19980699	     18.60964139	     -4.46753662	     24.66992543	     18.31856009	     -6.25746480	      4.04678616	    -65.52379670	     15.24079990	      0.54088385	     27.26672953	    -13.28791030	      9.20615454	     -4.76575400
      1.79000000	      6.05053523	     -7.60166204	      6.65591706	      0.48483947	      0.92071126	      0.08002053	     -3.65299377	     11.63829714	     -6.47601862	    -11.38673190	     18.47876645	     -4.85262808	     24.58379806	     18.70823633	     -5.95405703	      3.82856255	    -64.46381618	     15.38966386	      0.14843910	     27.11884503	    -13.38029449	      9.00151763	     -4.79248713
      1.79500000	      6.22749974	     -7.38776658	      6.58725309	      0.49198275	      0.92144816	      0.08015119	     -4.78839267	     11.54920196	     -6.05753726	    -10.58013423	     18.38597044	     -5.15226358	     24.51201171	     18.94533797	     -5.68556346	      3.51880357	    -63.29683485	     15.55869036	     -0.05490332	     26.95798678	    -13.58030590	      8.75802882	     -4.77026367
      1.80000000	      6.37290488	     -7.17968314	      6.51369985	      0.49911854	      0.92205811	      0.08027917	     -5.87635810	     11.45218066	     -5.67993879	     -9.79706743	     18.29637289	     -5.41464997	     24.44644125	     19.19096847	     -5.42329378	      3.21441774	    -62.06002794	     15.68859295	     -0.27012642	     26.78042468	    -13.74625773	      8.51641065	     -4.74936094
      1.80500000	      6.53606879	     -6.97645635	      6.41630307	      0.50622462	      0.92260066	      0.08042794	     -6.97312876	     11.35061631	     -5.31708465	     -9.03030438	     18.20780570	     -5.65858093	     24.38424520	     19.38415623	     -5.18511308	      2.88232273	    -60.74744425	     15.79571962	     -0.46079260	     26.58650182	    -13.93854047	      8.27844898	     -4.70146226
      1.81000000	      6.67721125	     -6.78153340	      6.30320386	      0.51331000	      0.92302546	      0.08059833	     -8.02951292	     11.24470635	     -4.98444994	     -8.29209186	     18.12519824	     -5.86712681	     24.32836437	     19.57242682	     -4.96287778	      2.54681066	    -59.36396280	     15.87791598	     -0.62523920	     26.39371555	    -14.11037519	      8.04135742	     -4.64083862
      1.81500000	      6.82353205	     -6.60001046	      6.17216658	      0.52037831	      0.92336952	      0.08078322	     -9.07895111	     11.14179202	     -4.67432957	     -7.57356682	     18.04690386	     -6.03834152	     24.27996387	     19.72471449	     -4.77027268	      2.19355063	    -57.91137359	     15.93894970	     -0.77164316	     26.19394176	    -14.29166603	      7.81729250	     -4.55427747
      1.82000000	      6.97482054	     -6.43154049	      6.02738628	      0.52742518	      0.92362102	      0.08099518	    -10.11629777	     11.04310145	     -4.39671988	     -6.88462545	     17.97537856	     -6.17067343	     24.23803588	     19.84467213	     -4.60586845	      1.82970505	    -56.39505418	     15.98308440	     -0.89297070	     25.98763751	    -14.48316537	      7.60252778	     -4.45316823
      1.82500000	      7.10867100	     -6.27405709	      5.86130231	      0.53445710	      0.92378011	      0.08123263	    -11.11551790	     10.94270762	     -4.14900628	     -6.22961209	     17.91527755	     -6.25871888	     24.20368094	     19.94826520	     -4.46333640	      1.45122732	    -54.80256794	     16.00099726	     -0.99951306	     25.78400474	    -14.65864574	      7.39268605	     -4.32949294
      1.83000000	      7.24314690	     -6.13204046	      5.68212712	      0.54146796	      0.92385219	      0.08147877	    -12.09690341	     10.84698782	     -3.93221902	     -5.60555473	     17.86529125	     -6.30225792	     24.17703110	     20.02255576	     -4.34831858	      1.06218221	    -53.14519439	     16.00106234	     -1.08934664	     25.58237614	    -14.83776912	      7.19717094	     -4.18640088
      1.83500000	      7.37868793	     -6.01141465	      5.49349163	      0.54846757	      0.92383650	      0.08174222	    -13.05797589	     10.76444860	     -3.75347891	     -5.01848285	     17.82282950	     -6.29060823	     24.15884005	     20.06710273	     -4.26668647	      0.66612758	    -51.42562554	     15.99051599	     -1.16632569	     25.37716093	    -15.01948026	      7.02115343	     -4.03042298
      1.84000000	      7.50694968	     -5.89998204	      5.29040778	      0.55545192	      0.92373513	      0.08202465	    -13.99283977	     10.68057863	     -3.60306685	     -4.46259294	     17.80209794	     -6.23394893	     24.14993951	     20.08597113	     -4.20269129	      0.25867952	    -49.63755985	     15.95703210	     -1.23500744	     25.17474622	    -15.19560895	      6.84982815	     -3.85112059
      1.84500000	      7.64580747	     -5.81446208	      5.08320759	      0.56243909	      0.92356583	      0.08231255	    -14.92021011	     10.61634494	     -3.50020403	     -3.93804719	     17.77227126	     -6.11957134	     24.14636168	     20.06401591	     -4.17812098	     -0.16523989	    -47.79169356	     15.92738884	     -1.29172903	     24.95550005	    -15.38318643	      6.70546030	     -3.66809523
      1.85000000	      7.75873482	     -5.73385870	      4.85462751	      0.56939734	      0.92330385	      0.08260227	    -15.78833798	     10.53986837	     -3.39326294	     -3.47468487	     17.78278517	     -5.97225625	     24.15587655	     20.03033822	     -4.15782937	     -0.59296955	    -45.87082800	     15.86260460	     -1.34649551	     24.75250972	    -15.54777908	      6.56245566	     -3.45326790
      1.85500000	      7.86830063	     -5.66841924	      4.62450588	      0.57638382	      0.92295691	      0.08291473	    -16.64014100	     10.47474112	     -3.33814904	     -3.03340407	     17.81312374	     -5.78811477	     24.17351777	     19.97015292	     -4.16380872	     -1.04135041	    -43.89989385	     15.78553140	     -1.38248873	     24.55858050	    -15.70425491	      6.42865372	     -3.22563712
      1.86000000	      7.97592533	     -5.61487619	      4.38308776	      0.58334336	      0.92254354	      0.08320489	    -17.46045835	     10.40730350	     -3.28695402	     -2.64732965	     17.86867531	     -5.56038436	     24.20078113	     19.87426455	     -4.18001112	     -1.49131838	    -41.86165480	     15.69209381	     -1.40232287	     24.37646300	    -15.86354173	      6.30913624	     -2.97996226
      1.86500000	      8.09731207	     -5.57966147	      4.13627638	      0.59032187	      0.92209999	      0.08349588	    -18.27312525	     10.34995782	     -3.26781434	     -2.30581164	     17.91004889	     -5.27463355	     24.23724595	     19.72096352	     -4.21978095	     -1.95480733	    -39.75588074	     15.60684138	     -1.39747871	     24.18644832	    -16.03665918	      6.20745151	     -2.73023050
      1.87000000	      8.17319387	     -5.55188074	      3.86089382	      0.59729036	      0.92153222	      0.08379471	    -18.99944564	     10.27902946	     -3.23133154	     -2.03981387	     18.03231127	     -4.98825144	     24.28873518	     19.58268037	     -4.26866941	     -2.45095443	    -37.60487889	     15.47765147	     -1.37499479	     24.02564760	    -16.16447386	      6.10762222	     -2.46552975
      1.87500000	      8.26459549	     -5.54097656	      3.58623064	      0.60430213	      0.92093957	      0.08408330	    -19.73115581	     10.21804782	     -3.22339393	     -1.79721403	     18.12823743	     -4.64846722	     24.34679006	     19.38518465	     -4.33508329	     -2.96040575	    -35.39717250	     15.36174918	     -1.30461536	     23.87229373	    -16.30255580	      6.02436572	     -2.19930847
      1.88000000	      8.41655137	     -5.54639210	      3.34576594	      0.61134126	      0.92035992	      0.08428492	    -20.52137677	     10.17560584	     -3.29631713	     -1.56368766	     18.18996656	     -4.22806245	     24.42722055	     19.09192918	     -4.40529862	     -3.44285341	    -33.15179149	     15.27367139	     -1.17082561	     23.67938125	    -16.50405528	      5.97192551	     -1.90847201
      1.88500000	      8.51551317	     -5.56318046	      3.06486377	      0.61838807	      0.91966845	      0.08450722	    -21.21601373	     10.11741069	     -3.32122337	     -1.41250032	     18.32333217	     -3.80730509	     24.53089384	     18.81686679	     -4.48599393	     -3.96191085	    -30.86996690	     15.14870680	     -1.00807665	     23.49897215	    -16.64920576	      5.92159486	     -1.60193041
      1.89000000	      8.58930679	     -5.59406873	      2.77069013	      0.62546114	      0.91890565	      0.08469831	    -21.86227439	     10.05489389	     -3.32540102	     -1.30808074	     18.49746162	     -3.37734767	     24.64884679	     18.53558160	     -4.56992059	     -4.47881351	    -28.56286590	     15.00689236	     -0.80505752	     23.34510853	    -16.76594083	      5.88564721	     -1.25732535
      1.89500000	      8.66668149	     -5.63627305	      2.47603782	      0.63258201	      0.91810746	      0.08484719	    -22.49200798	      9.99037825	     -3.35185182	     -1.24797258	     18.66196717	     -2.91053457	     24.78563363	     18.21724295	     -4.65658812	     -5.00645935	    -26.23893532	     14.85487443	     -0.54839773	     23.20642921	    -16.88185773	      5.86560576	     -0.92869091
      1.90000000	      8.76937771	     -5.69052705	      2.18703251	      0.63975520	      0.91731462	      0.08497778	    -23.12938532	      9.93023201	     -3.40943470	     -1.23156966	     18.79756576	     -2.40658141	     24.95318984	     17.83866493	     -4.74818903	     -5.54315835	    -23.90228934	     14.68166804	     -0.23451359	     23.07102079	    -17.02154225	      5.85784167	     -0.62634838
      1.90500000	      8.75390360	     -5.76346761	      1.85598461	      0.64696688	      0.91632951	      0.08508417	    -23.61032385	      9.85366185	     -3.38133760	     -1.28343944	     19.01327202	     -1.91803561	     25.11653647	     17.56834883	     -4.84140540	     -6.06467046	    -21.59245872	     14.48084042	      0.02675793	     22.97195552	    -17.02925588	      5.86641162	     -0.29518541
